# xmcd CD database file
#
# Track frame offsets:
#	150
#	44994
#	56544
#	68019
#	77319
#	88794
#	100269
#	111819
#	123369
#	134919
#	148869
#	161319
#	175044
#	188919
#	201144
#	215394
#	229344
#	248919
#	264294
#	287469
#
# Disc length: 4141 seconds
#
# Revision: 0
# Processed by: cddbd v1.5.1PL0 Copyright (c) Steve Scherf et al.
# Submitted via: CDex 1.40Release
#
DISCID=23102b14
DTITLE=西野尚利 - 雪降る季節へ 〜想い、あなたに〜
DYEAR=1900
DGENRE=Game
TTITLE0=Data Track
TTITLE1=朝
TTITLE2=学校
TTITLE3=自宅にて
TTITLE4=佐久間のテーマ
TTITLE5=千代のテーマ
TTITLE6=久香のテーマ
TTITLE7=綾香のテーマ
TTITLE8=直美のテーマ
TTITLE9=桜のテーマ
TTITLE10=良子のテーマ
TTITLE11=小沢のテーマ
TTITLE12=デート＃１
TTITLE13=デート＃２
TTITLE14=告白
TTITLE15=回想
TTITLE16=ラブシーン＃１
TTITLE17=ラブシーン＃２
TTITLE18=Silent Night
TTITLE19=Splash Morning
EXTD=ID3G: 36
EXTT0=
EXTT1=
EXTT2=
EXTT3=
EXTT4=
EXTT5=
EXTT6=
EXTT7=
EXTT8=
EXTT9=
EXTT10=
EXTT11=
EXTT12=
EXTT13=
EXTT14=
EXTT15=
EXTT16=
EXTT17=
EXTT18=
EXTT19=
PLAYORDER=
